<svg class="icon text-secondary size-6 sm:size-5" fill="none" viewbox="0 0 25 24" xmlns="http://www.w3.org/2000/svg"><rect fill="#3A4142" height="24" rx="12" width="24" x="0.5"></rect><path d="M12.8756 5.96282C13.043 6.04559 13.1786 6.18077 13.2614 6.34858L14.5805 9.02137C14.7042 9.27195 14.9433 9.44575 15.2196 9.48577L18.1692 9.91432C18.6332 9.98189 18.9546 10.4127 18.8874 10.8767C18.8608 11.0615 18.7734 11.2321 18.6401 11.3627L16.5057 13.4432C16.3057 13.6382 16.2142 13.9191 16.2615 14.1945L16.7655 17.1326C16.8446 17.5947 16.5342 18.0333 16.0721 18.1129C15.8882 18.1446 15.6987 18.1142 15.5337 18.0273L12.8954 16.6401C12.648 16.51 12.3528 16.51 12.1054 16.6401L12.1045 16.6397L9.4662 18.0269C9.05103 18.2448 8.53787 18.0857 8.31992 17.6705C8.23302 17.5055 8.20314 17.316 8.23438 17.1321L8.73833 14.194C8.78568 13.9186 8.69417 13.6376 8.4942 13.4427L6.3598 11.3622C6.02416 11.0348 6.01725 10.4973 6.34465 10.1616C6.47523 10.0278 6.6458 9.94093 6.83063 9.91424L9.78023 9.48569C10.0566 9.44568 10.2957 9.27189 10.4193 9.02129L11.7385 6.34849C11.9459 5.92825 12.4549 5.75542 12.8756 5.96282Z" fill="#B3BEC1"></path></svg>