<svg class="icon text-secondary ml-1 !h-4.5 !w-4.5" viewbox="0 0 32 32"><path clip-rule="evenodd" d="M23.3137 24.1394C23.7671 24.1394 24.1367 23.7698 24.1367 23.3164V14.9523H26.6674V23.3332C26.6575 25.1742 25.1548 26.6663 23.3137 26.6663H8.6469C6.81269 26.6457 5.3313 25.1498 5.3313 23.3126V8.65263C5.34883 6.81918 6.84774 5.33398 8.685 5.33398H17.0452V7.86469H8.685C8.23159 7.86469 7.86201 8.23428 7.86201 8.68768V23.3164C7.86201 23.7698 8.23159 24.1394 8.685 24.1394H23.3137ZM19.1338 7.86469V5.33398H26.6681V12.8682H24.1373V9.65699L13.4758 20.3148L11.6873 18.5263L22.345 7.86469H19.1338Z" fill-rule="evenodd"></path></svg>